<svg xmlns="http://www.w3.org/2000/svg" width="411" height="731" fill="none" viewBox="0 0 411 731">
    <g clip-path="url(#clip0)">
        <path fill="#6ACBD1" d="M411 231H-89v500h500V231z"/>
        <path fill="#48C1C5" d="M412.4 231H-89v135.3h501.4V231z"/>
        <path fill="#33AFB2" d="M412.4 231H-89v67.7h501.4V231z"/>
        <path fill="#059DAD" d="M70.8 340.7c-58.6 3.3-117.2 5-175.9 6.3-58.6 1.2-117.2 1.7-175.9 1.7-58.6 0-117.2-.5-175.9-1.7-58.6-1.2-117.2-3-175.9-6.3 58.6-3.3 117.2-5.1 175.9-6.3 58.6-1.2 117.2-1.7 175.9-1.7 58.6 0 117.2.6 175.9 1.7 58.6 1.2 117.2 3 175.9 6.3zM849 316.8c-58.6 3.3-117.2 5-175.9 6.3-58.6 1.2-117.2 1.7-175.9 1.7-58.6 0-117.2-.5-175.9-1.7-58.6-1.2-117.2-3-175.9-6.3 58.6-3.3 117.2-5.1 175.9-6.3 58.6-1.2 117.2-1.7 175.9-1.7 58.6 0 117.2.6 175.9 1.7 58.6 1.3 117.2 3 175.9 6.3zM802.5 279.5c-58.6 3.3-117.2 5-175.9 6.3-58.6 1.2-117.2 1.7-175.9 1.7-58.6 0-117.2-.5-175.9-1.7-58.6-1.2-117.2-3-175.9-6.3 58.6-3.3 117.2-5.1 175.9-6.3 58.6-1.2 117.2-1.7 175.9-1.7 58.6 0 117.2.6 175.9 1.7 58.7 1.2 117.3 3 175.9 6.3zM134.3 385.5c-58.6 3.3-117.2 5-175.9 6.3-58.6 1.2-117.2 1.7-175.9 1.7-58.6 0-117.2-.5-175.9-1.7-58.6-1.2-117.2-3-175.9-6.3 58.6-3.3 117.2-5.1 175.9-6.3 58.6-1.2 117.2-1.7 175.9-1.7 58.6 0 117.2.6 175.9 1.7 58.6 1.3 117.2 3 175.9 6.3z" opacity=".4"/>
        <path fill="#6ACBD1" d="M-42.8 299.2c2.1 0 4.3.3 6.3 1-3.9-6.2-.8-15.4 5.8-18.4 6.6-3 15.3.5 18.4 7-2.2-4.4-.1-10.5 4.4-12.6 4.5-2.1 10.5.1 12.5 4.6-.1-5.6 5.1-10 10.5-11.4 6.4-1.7 13.7-.5 18.8 3.8 5.1 4.3 7.7 11.6 5.8 18 4-2.1 9.4-1.2 12.5 2.1 3.2 3.2 3.9 8.6 1.7 12.6-.7 1.3-1.8 2.5-3.1 3.2-1.7.8-3.6.8-5.5.8l-80.8-.6c-3.2 0-10.8 1-13.4-1.2-4.9-4.3 2-8.9 6.1-8.9z"/>
        <path fill="#85E0E0" d="M159.4 338.7c-1.5 0-2.9.2-4.3.7 2.6-4.2.6-10.5-4-12.6-4.5-2.1-10.5.3-12.6 4.8 1.5-3 0-7.2-3-8.6-3.1-1.4-7.2.1-8.6 3.2.1-3.8-3.5-6.8-7.2-7.8-4.4-1.2-9.4-.3-12.9 2.6s-5.2 7.9-4 12.3c-2.8-1.4-6.4-.8-8.6 1.4-2.2 2.2-2.7 5.9-1.2 8.6.5.9 1.2 1.7 2.1 2.2 1.1.6 2.5.6 3.7.6 18.4-.1 36.8-.3 55.2-.4 2.2 0 7.4.7 9.2-.9 3.8-3-1-6.1-3.8-6.1z"/>
        <path fill="#FDE79B" d="M411 573S92.9 552 65 552c-27.9 0-153.2 1.4-153.2 1.4V730H411V573z"/>
        <path fill="#F88F4B" d="M412.4 506.9h-531.1v86.6h531.1v-86.6z"/>
        <path fill="#231F20" d="M196.7 506.9H-118.7l23.7 60.4 291.7-60.4z" opacity=".2"/>
        <path fill="#DA6640" d="M-113.3 536.5c0-1.8 25.8-9.2 29.1-10.4 10.9-3.8 21.8-7.4 32.9-10.7 33.2-9.9 69.3-17.1 105.5-16.2 34.5.9 61.8 13.6 90.1 27.5 35.6 17.5 86.7 24.1 124.7 7.5 22.8-10 42.2-21.2 68.7-24.5 26.9-3.4 55.3-.3 79.6 9.5v178.5l-534.2 2.3 3.6-163.5z"/>
        <path fill="#fff" d="M-113.3 545.3c0-1.8 25.8-9.2 29.1-10.4 10.9-3.8 21.8-7.4 32.9-10.7 33.2-9.9 69.3-17.1 105.5-16.2 34.5.9 61.8 13.6 90.1 27.5C179.9 553 231 559.6 269 543c22.8-10 42.2-21.2 68.7-24.5 26.9-3.4 55.3-.3 79.6 9.5v178.5l-534.3 2.3c.1.1 3.7-163.5 3.7-163.5z" opacity=".1"/>
        <path fill="#E26240" d="M-113.2 582.9c81.9-34.8 181.9-42.5 271-21 37.6 9.1 73.6 23.2 112.5 27.8 46.5 5.5 93.7-2.9 139.4-11.4 5.8-1.1 12.7-3.1 13.5-7.7v135.9l-536.5 2.3V582.9h.1z"/>
        <path fill="#D6552B" d="M420 567.9c.3 15.2-41.9 24.9-55.2 29-23.8 7.4-48.6 12.9-73.8 16.4-46.6 6.6-96 6.7-142.6.1-31.3-4.4-61.9-11.6-92.9-17.2-53.7-9.7-118.8-15.4-172.4-2.3v148l540.1-2.3c.1.1-3.2-171.5-3.2-171.7z"/>
        <path fill="#fff" d="M420 583.9c.3 15.2-41.9 24.9-55.2 29-23.8 7.4-48.6 12.9-73.8 16.4-46.6 6.6-96 6.7-142.6.1-31.3-4.4-61.9-11.6-92.9-17.2-53.7-9.7-118.8-15.4-172.4-2.3v148l540.1-2.3c.1.1-3.2-171.5-3.2-171.7z" opacity=".1"/>
        <path fill="#C13E10" d="M-106.6 606.3c29.1-12.3 61.3-22.4 96-26.9 35.4-4.7 73.1-2.9 106.2 6.2 35.3 9.7 62.4 27.4 92.4 41.8 29.6 14.2 68.1 23.4 104.6 28.6 20.1 2.8 40.6 4.4 61.2 4.7 5.7.1 63-.7 63-3.3l.5 81.5-516 1.8-7.9-134.4z"/>
        <path fill="#fff" d="M-106.6 619.3c29.1-12.3 61.3-22.4 96-26.9 35.4-4.7 73.1-2.9 106.2 6.2 35.3 9.7 62.4 27.4 92.4 41.8 29.6 14.2 68.1 23.4 104.6 28.6 20.1 2.8 40.6 4.4 61.2 4.7 5.7.1 63-.7 63-3.3l.5 64.5-516 1.8-7.9-117.4z" opacity=".1"/>
        <path fill="#5E1F0E" d="M119.6 566.9c1.4.4 2.2.6 3.3 1.7.8.8.7 1.6 1.9 1.9 1.5.4 2.3 1 3.5 2.1.9.9 2.2 2.1 3.7 1.8 1.5-.3 1.8-1.9 2.2-3 .2-.5.3-1 .4-1.5.1-.3.2-.5.3-.8.1-.3.1-.4 0-.7v-.5h.4l.1.1c.3.3.6.2.9.1h1c.7.1 1.3.2 2 .2.6 0 1.1.1 1.5.6.3.4.2.9.2 1.3v.1c-.2 0-.5-.1-.7-.1-.3 0-.5 0-.8.1-.6.3-1 .9-1.6 1.3-.9.7-1.4 1.9-1.9 2.9-1.1 2.2-3 3.7-5.5 3.7-.6 0-1.1-.2-1.7.1-.4.2-1.2.8-1.3 1.2-.1.5.5 1.3.7 1.7.3.6.9 1 1.2 1.6.6 1.2-.9 2.2-1.5 3.1-.8 1.3-1.1 2.5-1 4-.6-.1-1.6-.9-1.4-1.6 0 .1.5-.5.5-.5.3-.4.5-.9.7-1.4.5-.8 1.3-1.8 1.3-2.8 0-1.2-1.2-1.9-2-2.7-.2 1-.4 1.9-.4 2.9s-.3 1.7-.4 2.7c-.1.8 0 1.9.4 2.6.3.6 1.5.8 1.6 1.4-.5.2-2 .3-2.5-.1-.1-.1-.2-1.1-.3-1.3-.2-1.2.1-2.4-.1-3.6-.2-1.1-.1-1.8 0-2.9 0-.5.1-1 .1-1.6 0-.8.2-.9-.6-.8-1.1.1-2.2-.3-3.3-.5-1-.2-2.2-.2-3-.7-.9-.6-1.8-1.4-2.6-2.1-.2.7-.5 1.2-.7 1.9-.2.5-.2.9-.5 1.4-.3.5-.6.5-1 .8-.5.4-.7 1.3-.9 1.9-.5 1.4-.5 3.2-.1 4.6.4 1.4 1.1 1.6 2.3 2.2-.3.5-1.7.6-2.1.3-.7-.5-.7-2-.9-2.7 0 .6.1 1.2.3 1.7.2.5.6.8.8 1.3-.5.1-1.5.2-1.8-.3-.3-.4 0-.6.1-1.1.2-1.5-.2-3.3-.6-4.7-.4-1.6.9-2.4 1.2-3.9.1-.7-.1-1.6-.1-2.4 0-.8 0-1.7-.2-2.5-.2.9-.5 1.5-1 2.2-.2.3-.4.8-.6 1-.2.3-.4.2-.6.6-.5-.4 1.5-3.9 1.7-4.5.6-1.4 1.8-2.5 2.8-3.5.5-.5 1.2-.5 1.7-.8.6-.4.9-1.1 1.4-1.7.8-.8 1.9-1.8 3.5-1.8zM152.1 579.8c.2 1.3.4 2.5.2 3.8-.1.6-.4 1.4-.2 2 .2.5.8 1.1 1.1 1.6.7 1.1 1.7 2.1 2.3 3.3.1.2.1.6.4.8.4.3 1.6 0 2.1 0-.1-.6-.5-.5-.9-.7-.6-.3-.9-.8-1.3-1.3-.8-1.1-1.5-2.4-1.6-3.8-.1-1 .1-2.7.5-3.7.2-.5.6-1 .9-1.4.4-.6.4-.8.3-1.6 1.4.1 2.6.7 4.1.8.8 0 1.6-.4 2.3-.3.7 0 1.1.3 1.1.9.1.7-.3 1.7-.5 2.4-.3 1-.5 1.5-.5 2.5 0 1.5-.4 3.1-.8 4.5-.1.5-.6.9-.1 1.3.2.2 2 .2 2.2 0 .5-.5-.5-.5-.7-.8-.4-.4-.1-1.5 0-2.1.2-1.6 1-2.9 1.3-4.4.2-1.3.9-3.7 1.9-4.5 0 .5.3.6.6.9.5.4.6.6.9 1.1.4.8.9 1.7 1.2 2.6.6 1.7 1.4 3.3 1.9 5.1.2.8-.1 1.5.8 1.8.3.1 1.7.1 1.7-.4 0-.3-.9-.7-1.1-.9-.2-.3-.2-.6-.4-.9-.4-1-.9-1.8-1.1-2.9-.2-1.1-.3-1.8-.8-2.8-.4-.8-.5-1.8-.7-2.7-.2-1-.4-2 .3-2.8.6-.7 1.9-.6 2.8-.9 1.8-.5 3-1.4 4.2-2.8.7-.9 1.5-1.7 2.4-2.3.4-.3.9-.7 1.5-.8.3-.1.5.1.8.2.3.1.5 0 .7-.1.8-.6-.3-2-.9-2.3-.5-.2-1.1-.2-1.7-.3-.5-.1-.9-.4-1.4-.4H177c-.1 0-.2-.1-.4-.2h-.3c-.1 0-.1 0-.1.1-.1.2.2.5.1.7-.1.2-.2.5-.3.7-1.2 2.1-2.3 4.1-5.1 3.8-1.1-.1-2.2-.6-3-1.5-.3-.3-.7-.7-.9-1.2-.2-.5-.1-1-.4-1.5-.2-.3-.5-.5-.7-.8-.1-.1-.1-.2-.2-.3-.1-.1-.2-.1-.3-.1-.1 0-.3-.1-.4 0-.2 0-.3.2-.5.2-.1.1-.3.1-.5.1-.4 0-.7 0-1.1-.1-.7-.1-1.3-.3-2-.3-1-.1-2.3-.4-3.2.3-.8.7-1.5 1.6-2.2 2.5-.5.5-.8 1.2-1.4 1.5-.5.2-1 .4-1.4.8-.5.4-.8.9-1.3 1.2 0-.1 0-.2-.1-.2-.1.4-.2.3-.4.7-.2.5-.3 1-.5 1.4-.3.8-.5 1.6-.7 2.5-.5 1.7-1.1 3.4-2.1 4.9-1.1 1.6-.6 3.4-.7 5.3-.1.8-.4 1.8-.3 2.6.1.9 1.1.8 2 .8 0-.5-.5-.5-.8-.8-.3-.4-.1-.8-.1-1.2.1-1.3.2-2.5.7-3.8.5-1.2 1.1-2.2 1.7-3.3.3-1 1.2-1.7 2-2.5zM208.6 592.4c-.5.1-1.9.4-2.4 0-.3-.2-.1-.3-.1-.6-.1-.5-.3-1-.4-1.4-.4-1-.8-2-1.2-2.9-.5-1-.5-1.7-.6-2.9-.1-1.1-.2-2.1-.3-3.2 0-.3 0-1.1-.5-1.2-.2 0-.7.7-.8.8-1.4 1.6-2.3 3.4-3.4 5.2-.5.8-1.2 1.4-1.6 2.2-.4.8-.7 1.7-1 2.5-.1.4-.2.2-.1.6.1.3.8.4.3.8s-2 0-1.9-.7c0-.4.6-.9.8-1.2.3-.4.5-.9.8-1.3.5-.9.9-1.8 1.2-2.8.2-.9.7-1.6 1.1-2.4.5-1 .9-2.1 1.4-3.1-1.3 0-2.8-.2-4-.7-1.1-.5-1.8-1.3-2.8-2 0 .6-.2 1.3-.3 1.9 0 .6-.1.9-.5 1.4-.9 1.2-1.8 2.5-2.1 4-.3 1.3.1 2.9.6 4.2.2.5.5 1.2 1 1.5.5.3 1 .1 1.3.8-.5 0-1.1.1-1.6 0-.6-.1-.4 0-.7-.4-.5-.8-.7-1.8-1-2.6-.4-1-1.2-2.3-1.3-3.3 0-.9.7-2.2 1.1-3-.3-.2-1.4.9-1.7 1.1-.6.5-1 1.1-1.3 1.9-.3.8-.4 1.6-.4 2.5 0 .4.1.9.1 1.3-.1.4-.4.6-.5 1-.1.4.2 1.6-.7 1.2-.2-.1-.5-.7-.5-1-.1-.5 0-.4.3-.8s.4-.3.5-.8c.1-.4.2-.9.3-1.4.2-1.1.1-2.2.1-3.3 0-1.2.4-1.2 1.2-1.9.9-.8 1.2-1.1 1.1-2.3-.1-1.8.2-3.9 1.1-5.5.4-.8 1-1.6 1.6-2.3.6-.7 1.6-.6 2.3-1 1.4-.7 2.7-2.5 4.5-2.3.8.1 1.3.8 2 1.1.9.5 1.9.7 2.9.8.8.1 1.6.3 2.3.8.7.5 1.1 1.2 1.9 1.5 1.7.8 3.5.6 4.9-.7.6-.6 1.1-1.3 1.5-2 .4-.8 1.1-1.4 1.5-2.2.2-.4.1-1.1.5-1.1.2 0 .6.3.7.4.1.1.5.2.6.2.9.3 1.5.1 2.5.1.7 0 1.7.6 1.6 1.5-.1.7-1.1.5-1.7.8-.8.3-1.5.9-2.2 1.4-1.4 1-2.2 2.7-3.5 3.8-1.7 1.5-3.3 2.1-5.5 2.4-2.1.3-2 3-2.1 4.6-.1 1-.2 2.1.1 3.1.2.9-.1 1.7.2 2.7.3.9.6 2.2 1.2 2.9.5.8 1.2.4 1.6 1.3zm-19.5-15.7c-.7.5-.8 2.2-.2 2.7 0-.9.1-1.8.2-2.7z"/>
        <path fill="#5E1F0E" d="M194 575.6c.5.7 1.1 1.3 1.8 1.6.5.2 1.1.2 1.7.2h2.4c.5 0 1.1 0 1.6-.2.6-.2 1.1-.7 1.6-1.1 2.3-2 2.1-4-.2-5.8-1.2-1-2.5-1.9-4.1-2.3-1.1-.3-2.4-.3-3.5.2-1.2.5-1.7 1.5-2.7 2.3-.3.2-.6.5-.8.9-.2 1.2 1.5 3.3 2.2 4.2zM121 576.8c.9 0 1.7-.2 2.3-.9.4-.5.6-1.1.9-1.7.4-.8 1-1.6 1.4-2.4.1-.2.2-.4.2-.6 0-.2-.2-.4-.4-.5-2.1-1.8-4.6-5.2-7.8-4.3-.9.3-1.6.9-2.1 1.8-.6 1-1.1 1.8-1.8 2.7-.2.2-.4.5-.4.8 0 .2 0 .4.1.6 1 2.6 2.8 3.9 5.6 4.4.5 0 1.3.2 2 .1zM159.2 575.6c1.6.2 3.1-.6 4.5-1.5.7-.4 1.5-.9 2.1-1.5 1.2-1.2 1.2-3.2.5-4.6-.9-1.6-2.1-1.3-3.7-1.3h-.8c-.5-.1-1-.4-1.4-.5-3-1.1-5.7 2.4-5.8 5.1-.1 2 2.6 4.1 4.6 4.3z"/>
        <g fill="#231F20" opacity=".2">
            <path d="M96.4 627.8c2.4-.6 3.8-.9 6.3-2.5 1.8-1.2 2.4-2.5 4.4-2.9 2.5-.6 4.1-1.5 6.6-3.2 2-1.4 4.7-3.3 6.4-2.8 1.7.5 1.1 3 .9 4.9-.1.8-.3 1.6-.5 2.4-.1.4-.1.8-.2 1.3 0 .5-.2.7-.5 1.1l-.3.6v.1l.1.1c.2 0 .3.1.5 0 .1 0 .1-.1.2-.2.5-.4 1-.2 1.4-.2h1.5c1-.1 2.1-.3 3.1-.3.9 0 1.7-.2 2.5-1 .6-.6.8-1.4 1-2.1v-.1h-.1c-.3-.1-.7.1-1 .1-.4 0-.7 0-1-.2-.7-.4-.9-1.4-1.4-2-.8-1.1-.7-3-.7-4.7.1-3.5-1.3-5.9-4.4-6-.7 0-1.5.2-2-.1-.3-.3-.9-1.3-.7-1.9.3-.7 1.7-2 2.2-2.6.9-.9 1.9-1.6 2.7-2.5 1.7-1.9.6-3.4.8-5 .2-2.1.8-4 2.2-6.4-.7.2-2.5 1.3-2.9 2.5.1-.2.2.8.2.8 0 .7-.3 1.5-.4 2.2-.1 1.3 0 2.9-.8 4.4-.9 1.8-3 3-4.6 4.2.6-1.6 1.1-3 2-4.6.9-1.6 1.1-2.8 1.8-4.3.6-1.3 1.6-3 2.6-4.2.9-1 2.3-1.2 2.9-2.2-.4-.3-1.8-.6-2.6.1-.2.2-1.2 1.8-1.4 2.1-1.2 1.8-2 3.8-3.3 5.7-1.2 1.7-1.7 2.8-2.6 4.6-.4.8-.8 1.7-1.3 2.5-.7 1.3-.6 1.4-1.5 1.3-1.3-.1-3 .4-4.5.7-1.4.3-2.8.2-4.4 1.1-1.8 1-3.7 2.2-5.5 3.3.5-1.1.7-2 1.1-3 .3-.8.7-1.4.9-2.2.1-.8-.2-.8-.3-1.3-.1-.7.6-2.1.9-3 1-2.2 2.9-5 5-7.3 2-2.3 2.9-2.5 4.8-3.4.2-.7-1-1-1.9-.6-1.2.7-3 3.1-4 4.2.6-.9 1.5-1.9 2.2-2.7.8-.8 1.5-1.2 2.2-2-.4-.1-1.4-.3-2.2.4-.8.6-.7.9-1.1 1.7-1.4 2.3-4 5.1-6 7.3-2.3 2.5-1.6 3.7-3 6.1-.7 1.2-1.9 2.5-2.8 3.7-.9 1.2-1.9 2.7-3 3.9.7-1.4 1.1-2.3 1.2-3.5.1-.5.4-1.2.4-1.6 0-.4-.2-.3 0-.9-1.1.6-2.6 6.1-3 7.2-.8 2.2-.5 4-.1 5.6.2.8 1.1.8 1.5 1.4.5.6.1 1.8.2 2.7.4 1.5 1 3.1 3.3 3.2zM147.9 608.9c.7-2 1.2-4 1.5-6.1.1-1 0-2.2.4-3.2.4-.9 1.2-1.8 1.7-2.6 1.1-1.7 2.4-3.4 3.4-5.2.2-.4.3-1 .6-1.3.5-.4 1.7 0 2.2 0-.2 1-.6.8-1.1 1.2-.7.5-1.2 1.3-1.7 2.1-1.2 1.8-2.3 3.9-2.8 6.1-.4 1.7-.7 4.3-.5 5.9.1.8.4 1.6.6 2.3.3 1 .3 1.3 0 2.5 1.8-.1 3.5-1.1 5.3-1.3 1-.1 1.9.6 2.9.5.9 0 1.4-.5 1.5-1.4.2-1.2-.1-2.8-.3-3.9-.2-1.5-.4-2.4-.3-4.1.2-2.3 0-5-.1-7.2-.1-.8-.5-1.5.1-2 .3-.2 2-.3 2.2 0 .4.8-.6.9-.8 1.2-.4.6-.3 2.5-.3 3.3 0 2.6.8 4.6.9 7 .1 2 .7 5.8 1.9 7.2 0-.8.4-1 .8-1.4.6-.6.8-.9 1.2-1.8.5-1.3 1.2-2.7 1.5-4.1.7-2.7 1.6-5.3 2.2-8.1.2-1.2-.2-2.4.8-2.8.3-.1 1.7-.2 1.8.6 0 .4-.9 1-1.1 1.4-.2.4-.2 1-.3 1.4-.4 1.6-1 2.9-1.1 4.6-.2 1.8-.3 2.8-.9 4.5-.5 1.3-.6 2.8-.8 4.3-.3 1.6-.6 3.2.4 4.5.8 1 2.4 1 3.6 1.4 2.4.8 4 2.2 5.8 4.5 1.1 1.3 2.3 2.7 3.7 3.7.7.5 1.4 1 2.2 1.3.4.1.7-.2 1-.3.3-.1.7 0 1 .2 1.3 1 0 3.2-.8 3.7-.7.4-1.6.4-2.4.5-.7.2-1.3.6-2 .7-.3 0-.7 0-1-.1h-.3c-.2.1-.3.2-.5.3h-.4c-.1 0-.2-.1-.2-.1-.2-.3.2-.8 0-1.2-.1-.4-.4-.8-.6-1.2-1.9-3.4-3.6-6.5-7.4-6-1.5.2-3.1 1-4.2 2.4-.4.6-1 1.2-1.3 1.8-.4.7-.3 1.6-.7 2.3-.3.5-.8.8-1.1 1.3-.1.1-.1.3-.3.4-.1.1-.3.2-.5.2s-.4.1-.7.1c-.3 0-.4-.3-.7-.4-.2-.1-.5-.1-.7-.1-.5 0-1.1 0-1.6.1-1 .1-2 .4-3 .5-1.5.1-3.5.6-4.6-.4-1.1-1.1-1.8-2.6-2.6-3.9-.5-.9-.8-2-1.6-2.4-.6-.4-1.3-.6-1.8-1.2s-.8-1.4-1.4-1.9c0 .2-.1.3-.2.3 0-.6-.2-.5-.3-1-.1-.7-.1-1.5-.1-2.3v-3.9c.1-2.7-.1-5.4-.7-7.8-.6-2.6.8-5.4 1.4-8.4.3-1.2.3-2.9.7-4.1.5-1.5 1.5-1.3 2.4-1.3-.2.9-.7.8-1.1 1.3-.4.6-.5 1.2-.6 1.9-.5 2.1-.8 4-.8 6 .1 1.9.4 3.5.8 5.2.2 1.5 1.1 2.6 1.8 3.8zM207.8 593.8c-.2 1.1.1 3.2.3 4.6.2 1.5 1 2.9 1.2 4.3.2 1.6 1 3.3 1.6 5 1 2.7 2.3 7 5.1 7.7 3 .7 5.3 1.7 8.6 4.4 2.5 2 4.7 4.9 7.3 6.6 1.3.8 2.8 1.9 4.1 2.5.9.4 2.3.3 3 1.4.8 1.4-.2 2.3-1.1 2.2-1.3-.1-2.4-.5-3.5-.2-.2.1-.6.2-.8.3-.2.1-.5.6-.8.6-.7 0-.9-1.1-1.5-1.8-1.1-1.3-2.5-2.4-3.6-3.7-1.1-1.2-2.1-2.4-3.3-3.4-2.7-2.2-5.3-2.8-7.1-1.6-.8.5-1 1.6-1.7 2.3-.7.7-1.7 1-2.8 1.1-1.3.2-2.6.4-3.7 1.1-.8.5-1.3 1.5-2.3 1.6-2.5.2-4.8-2.8-7-4.1-1.2-.7-2.5-.8-3.5-1.9-1-1.1-1.9-2.5-2.7-3.8-1.6-2.7-2.4-6-2.6-8.9-.1-1.8-.6-2.5-1.8-3.8-1.1-1.2-1.5-1.3-1.7-3.1-.2-1.7-.3-3.5-.6-5.2-.1-.7-.3-1.5-.5-2.2-.2-.8-.3-.7-.7-1.3-.4-.6-.4-.5-.4-1.3 0-.4.2-1.4.4-1.5.8-.6.7 1.2.9 1.9.2.6.6 1.1.7 1.7.1.6.1 1.4.2 2.1.2 1.3.5 2.7.9 4 .4 1.2 1 2.3 1.8 3.2.3.4 1.9 2.1 2.2 1.9-.6-1.4-1.8-3.4-1.9-4.9-.2-1.6.5-3.7.7-5.2.2-1.3.1-2.9.4-4.1.2-.7 0-.5.6-.6.5-.1 1.1.1 1.6.1-.1 1.1-.6.8-1.1 1.2-.5.4-.5 1.5-.6 2.4-.2 1.9-.3 4.4.3 6.6.7 2.5 2 4.6 3.5 6.6.6.9.8 1.3 1 2.3.2 1 .8 2.1.9 3.2 1-1 1.6-2.4 2.8-3 1.3-.7 3-.8 4.7-.7-1-1.7-2-3.5-2.9-5.2-.8-1.4-1.6-2.5-2.2-4-.7-1.7-1.4-3.1-2.3-4.7-.4-.8-.8-1.5-1.3-2.2-.3-.5-1.1-1.4-1.2-2-.2-1 1.1-1.6 1.7-.9.6.6-.1.7 0 1.2 0 .6 0 .3.3 1 .5 1.3 1.3 2.9 2 4.1.8 1.4 1.8 2.4 2.6 3.7 1.9 2.9 3.9 6 6.2 8.7.2.2 1.1 1.3 1.3 1.3.5 0 .2-1.4 0-1.8-.5-1.8-.9-3.5-1.3-5.2-.4-1.8-.8-3-.8-4.6 0-1.5-.1-3.1-.3-4.7-.1-.8-.1-1.5-.3-2.3-.1-.5-.4-.6-.2-1 .2-.6 1.8 0 2.4.3 0 1.4-1 .7-1.2 1.7zm-15.9 17.6c-.6.8-.1 3.5.9 4.4-.3-1.5-.6-2.9-.9-4.4z" opacity=".2"/>
            <path d="M199.4 618c.4-1 1-2 1.8-2.3.6-.3 1.4-.2 2.1-.2 1 .1 2 .1 3 .2.7 0 1.4.1 2.1.4.9.4 1.8 1.2 2.6 2 4 3.5 4.8 6.6 2.4 9.3-1.3 1.4-2.8 2.8-4.8 3.3-1.5.4-3.4.2-5.1-.7-1.9-1-2.9-2.6-4.5-4-.5-.4-1.1-.9-1.3-1.5-.6-1.9 1.1-5.1 1.7-6.5zM107.8 612.1c1.1.1 2 .4 2.1 1.4.1.8-.2 1.8-.3 2.7-.1 1.3-.1 2.5-.2 3.8 0 .3-.1.7-.3 1-.2.3-.6.6-1 .8-4.6 2.8-11.3 8-15.2 6.6-1.1-.4-1.5-1.5-1.3-2.8.2-1.6.3-2.8.2-4.3 0-.4 0-.8.3-1.2.2-.3.5-.6.7-.9 4.1-4.1 7.9-6 12-6.9 1-.1 2.1-.3 3-.2zM155.9 616.6c2.1-.3 4 1 5.8 2.3 1 .7 1.9 1.4 2.7 2.4 1.5 1.9 1.5 5.1.3 7.4-1.4 2.5-3.2 2.1-5.6 2.2-.4 0-.8 0-1.2.1-.8.2-1.5.6-2.2.9-4.7 1.8-7.8-3.8-7.1-8.1.4-3.5 4.5-6.8 7.3-7.2z" opacity=".2"/>
        </g>
        <path fill="#FEFEFC" d="M119.8 419.5l-24.6-2 24.6-2v4zM134.3 436.9l-34.8-2 34.8-2v4zM167.3 474.7l-59-2.9 59-1.1v4zM149.9 454.3l-45.3-2 45.3-2v4z" opacity=".2"/>
        <path fill="#231F20" d="M10.4 687.8c2.2 4 2.6 8.5 3 13.3.4 3.7 1 8.9 6.3 10.6 7.1 2.3 9.7-4.1 10.6-7.8 1.8-6.8-.2-13.9-4.6-19.1-2.5-3-5.8-5.2-10-6.4 5-8.6 9.8-17.1 14.9-25.6.1-.1.1-.2.1-.2 0-.1-.1-.1-.1-.1-1.3-.2-2.5-.5-3.8-.7-1.6-.2-3.3-.3-5.2-.2-1.2.1-2.3-.2-3.9.5-3.5 1.5-7.1 8-8.6 10.1-3.3 4.4-6.6 8.9-10 13.3-3.1 4.1-6.3 8.2-9.6 12.2-9.5.1-21.2 4.3-30 9.5-9.3 5.3-15.9 11.6-21.8 17.7-2.5 2.6-5 5.4-5.7 8.1-.8 3.6 3.4 6.7 11.3 4.3 8-2.5 11.5-9.7 15.1-13.7 4.6-5.2 12.1-13.7 21.8-16.8.8-.3 1.6-.5 2.4-.7-4.7 5.6-9.4 11.2-14.2 16.9-6.6 7.7-13.3 15.3-19.8 23-5.3 6.2-10.4 13.4-7.4 20 4.3 8.7 17.4 3.8 25.9-1.2 2.3-1.4 4.3-2.8 5.7-3.9 4.6-3.6 8.2-7.6 11.2-11.7.3.2.5.5.7.7 4.2 4 2 8 1.3 12.1-.2 1.6-.2 3.3.5 5 1.2 2.7 6.5 4.8 11 3.2 7-2.4 9.5-11.7 8.2-15.9-.6-2.2-1.7-4.4-3.8-6.2-3.2-2.8-8.4-4.3-13.9-5.3 2.6-4.3 4.8-8.6 6.9-12.9 5.6-10.9 9.1-22 15.4-32.6 0 .4 0 .5.1.5z" opacity=".2"/>
        <path fill="#5E1F0E" d="M43 549.7c.4-1.6.9-3.2 1.8-4.7 1.5-2.3 4.8-3.4 6.9-1.2 3.1 3.4 2.1 12.3.2 16.1-1 2-2.3 3.9-4.1 5.3-3.6 2.8-8.5 3.2-13 3.1-.4 0-.9 0-1.3-.3-.8-.6-.5-1.9.1-2.7 1.2-1.8 3.1-2.9 4.7-4.3 3.7-3.1 3.8-7.3 4.7-11.3zM44.2 619.5c-3.7 3.1-8 5.3-12.5 6-1.3.2-2.7.1-3.6-.8-3.2-3.3 3.9-7.4 5.7-9.3 3.6-3.8 5.9-8.2 8.2-12.9 1.7-3.6 4.1-8.6 8.4-9.6 5.6-1.4 5.3 4.9 4.7 8.6-1.2 6.5-5.3 13.3-10.9 18zM.9 569.9c-1.1 2.9-1.2 6.1-1.3 9.2-.1 7.2.2 14.7 3 21.4 2.8 6.7 8.8 12.4 16 13.1 1.9.2 4.2-.2 5.1-1.9 1-1.8-.3-4.1-1.9-5.3-1.6-1.2-3.7-1.9-5.2-3.3-4.9-4.2-5.1-13.9-5.2-19.8-.1-4.6 1.4-12.3-1.9-16.1-3.2-3.6-7.2-1.1-8.6 2.7z"/>
        <path fill="#B05B36" d="M18.5 608.9l.2-.8c-5.4-1.5-10-5.9-11.7-11.2-.8-2.6-1-5.3-1.2-7.7-.4-7.7-.2-15.6.8-23.3l-.8-.1c-.9 7.7-1.2 15.6-.8 23.4.1 2.4.3 5.3 1.2 7.9 1.9 5.7 6.7 10.3 12.3 11.8zM36.7 566c4.2-.3 8.1-2.9 10.1-6.6.6-1.2 1-2.4 1.4-3.5 1.3-4.2 2-8.5 2.2-12.9h-.7c-.2 4.3-.9 8.6-2.1 12.7-.3 1-.7 2.3-1.3 3.4-1.8 3.5-5.5 5.9-9.5 6.2l-.1.7zM28.7 622.2c4.8.4 9.9-1.9 13.9-6 3.6-3.8 5.9-8.6 7.8-13.3 1.3-3.1 2.4-6.2 3.5-9.3l-.6-.2c-1 3.1-2.2 6.2-3.4 9.3-1.9 4.6-4.1 9.3-7.6 13.1-3.8 4-8.8 6.2-13.3 5.8l-.3.6z"/>
        <path fill="#5E1F0E" d="M33.7 544c.7 1.7 1.3 3.4 1.7 4.6 3.2 10.5 2.4 22.1 1.7 33-.8 11.7-3.4 23.5-3.7 35.1-.3 10.3-1.2 20.5-1.8 30.7-.1 1.5.5 4-.8 5.1-1.2 1.1-3.3.9-4.8.9-2.3.1-4.5.4-6.8-.2-.6-.2-1.3-.4-1.7-.9-1.6-1.8-.8-5-.6-7.1.2-3 .6-6 .7-9 .1-3.1.1-6.2.2-9.2.3-14-.2-28-.7-42-.3-8.6-.6-17.2-.8-25.8-.2-6.9.2-14.9 4.3-20.8 5.6-7.6 10.4-.6 13.1 5.6z"/>
        <path fill="#B05B36" d="M24.1 653.7l1-.2c-1-4.9-1.1-9.5-1.1-14.5l-.2-80.8c0-7.2.2-16.5 2.9-22.8l-.9-.1c-2.7 6.5-2.7 15.6-2.6 22.9v1.5l.2 79.3c0 5.1-.4 9.6.7 14.7z"/>
        <path fill="#FEFEFC" d="M11 451.2l-34.8-2 34.8-2v4zM43.9 485.2l-58.9-2.8 59-1.2-.1 4zM26.6 466.9l-45.3-2 45.3-2v4z" opacity=".2"/>
    </g>
    <path fill="#33AFB2" d="M411 0H-89v232h500V0z"/>
    <path fill="#FEFEFC" d="M58.813 130.208c16.799 0 30.417-13.617 30.417-30.416 0-16.798-13.618-30.416-30.417-30.416-16.798 0-30.416 13.618-30.416 30.416 0 16.799 13.618 30.416 30.416 30.416z" opacity=".2"/>
    <path fill="#FEFEFC" d="M76.702 117.702c9.886-9.887 9.886-25.915 0-35.801-9.886-9.887-25.915-9.887-35.801 0-9.887 9.886-9.887 25.914 0 35.801 9.886 9.886 25.914 9.886 35.8 0z" opacity=".2"/>
    <path fill="#FEFEFC" d="M69.302 117.12c9.57-5.801 12.624-18.26 6.823-27.83-5.801-9.568-18.261-12.623-27.83-6.822-9.569 5.801-12.623 18.261-6.822 27.83 5.8 9.569 18.26 12.623 27.83 6.822z"/>
    <defs>
        <clipPath id="clip0">
            <path fill="#fff" d="M0 0H500V500H0z" transform="translate(-89 231)"/>
        </clipPath>
    </defs>
</svg>
